<svg xmlns="http://www.w3.org/2000/svg" width="1120" height="420" viewBox="0 0 1120 420" role="img" aria-labelledby="title desc">
  <title id="title">e-Fatura CV para PHP</title>
  <desc id="desc">Ilustração do pacote e-Fatura CV para PHP com DFE v11, assinatura XAdES-BES, Composer e integrações Laravel, Symfony e Yii2.</desc>
  <defs>
    <linearGradient id="bg" x1="0" y1="0" x2="1" y2="1">
      <stop offset="0" stop-color="#0b1117"/>
      <stop offset="1" stop-color="#101923"/>
    </linearGradient>
    <linearGradient id="paper" x1="0" y1="0" x2="1" y2="1">
      <stop offset="0" stop-color="#ffffff"/>
      <stop offset="1" stop-color="#e7edf3"/>
    </linearGradient>
    <linearGradient id="accent" x1="0" y1="0" x2="1" y2="1">
      <stop offset="0" stop-color="#f05a5a"/>
      <stop offset="1" stop-color="#f78c3d"/>
    </linearGradient>
    <filter id="shadow" x="-20%" y="-20%" width="140%" height="140%">
      <feDropShadow dx="0" dy="16" stdDeviation="18" flood-color="#000000" flood-opacity="0.35"/>
    </filter>
    <style>
      .label { fill: #f8fafc; font: 700 21px Inter, Segoe UI, Arial, sans-serif; }
      .small { fill: #dbeafe; font: 600 14px Inter, Segoe UI, Arial, sans-serif; letter-spacing: .04em; }
      .mono { fill: #0f172a; font: 700 18px Consolas, Monaco, monospace; }
      .muted { fill: #9fb2c8; font: 600 15px Inter, Segoe UI, Arial, sans-serif; }
      .bubbleText { fill: #ffffff; font: 700 16px Inter, Segoe UI, Arial, sans-serif; text-anchor: middle; }
      .bubbleSub { fill: #eef6ff; font: 600 11px Inter, Segoe UI, Arial, sans-serif; text-anchor: middle; letter-spacing: .03em; }
    </style>
  </defs>

  <rect width="1120" height="420" rx="34" fill="url(#bg)"/>
  <circle cx="176" cy="328" r="126" fill="#0f2433" opacity=".45"/>
  <circle cx="960" cy="88" r="150" fill="#142c3c" opacity=".42"/>

  <g filter="url(#shadow)">
    <circle cx="370" cy="210" r="132" fill="#eef2f7"/>
    <circle cx="370" cy="210" r="132" fill="none" stroke="#f15d5d" stroke-width="10"/>
    <circle cx="370" cy="210" r="102" fill="#dfe5eb"/>
    <circle cx="370" cy="210" r="72" fill="#26313b"/>

    <path d="M331 151c42 0 70 33 70 79-51-22-70-30-70-79z" fill="#f58235"/>
    <path d="M415 233c-8-47 3-85 33-99 24 15 9 74-33 99z" fill="#8bc34a"/>
    <path d="M401 232c-30 11-44 25-44 54 31-1 54-23 44-54z" fill="#2f9bd7"/>

    <path d="M264 285h-32a18 18 0 0 0-18 18v7h50z" fill="#ffffff"/>
    <path d="M227 280l18 18m-1-30 28 28m-4-37 35 35" stroke="#f05a5a" stroke-width="7" stroke-linecap="round"/>
  </g>

  <g transform="translate(538 96)">
    <text class="small" x="0" y="0">BIBLIOTECA COMPOSER</text>
    <text class="label" x="0" y="38" font-size="34">e-Fatura CV para PHP</text>
    <text class="muted" x="0" y="72">XML DFE v11, XSD oficial, ZIP Deflate, eventos fiscais</text>
    <text class="muted" x="0" y="98">e assinatura XAdES-BES para Cabo Verde.</text>

    <g transform="translate(0 138)">
      <rect width="386" height="74" rx="18" fill="#f8fafc"/>
      <text class="mono" x="24" y="46">&lt;Dfe Id="CV..." /&gt;</text>
      <circle cx="332" cy="37" r="22" fill="#10b981"/>
      <path d="M321 37l8 8 16-18" fill="none" stroke="#fff" stroke-width="5" stroke-linecap="round" stroke-linejoin="round"/>
    </g>
  </g>

  <g>
    <path d="M472 174c54-38 102-57 144-57" fill="none" stroke="#ef5b5b" stroke-width="5" stroke-linecap="round"/>
    <path d="M474 174l18-2-10 15" fill="none" stroke="#ef5b5b" stroke-width="5" stroke-linecap="round" stroke-linejoin="round"/>
    <circle cx="666" cy="116" r="56" fill="#ef5b5b" stroke="#ffffff" stroke-width="7"/>
    <text class="bubbleText" x="666" y="111">DFE</text>
    <text class="bubbleSub" x="666" y="130">V11</text>
  </g>

  <g>
    <path d="M455 263c75 45 126 77 153 97" fill="none" stroke="#2db7e5" stroke-width="5" stroke-linecap="round"/>
    <path d="M455 263l17 6-15 9" fill="none" stroke="#2db7e5" stroke-width="5" stroke-linecap="round" stroke-linejoin="round"/>
    <circle cx="648" cy="360" r="56" fill="#36aee2" stroke="#ffffff" stroke-width="7"/>
    <text class="bubbleText" x="648" y="354">XAdES</text>
    <text class="bubbleSub" x="648" y="374">BES</text>
  </g>

  <g>
    <path d="M344 310c-20 56-38 82-62 87" fill="none" stroke="#8b6bbe" stroke-width="5" stroke-linecap="round"/>
    <path d="M344 310l5 17-16-6" fill="none" stroke="#8b6bbe" stroke-width="5" stroke-linecap="round" stroke-linejoin="round"/>
    <circle cx="248" cy="358" r="56" fill="#8b6bbe" stroke="#ffffff" stroke-width="7"/>
    <text class="bubbleText" x="248" y="352">Composer</text>
    <text class="bubbleSub" x="248" y="372">PACKAGIST</text>
  </g>

  <g>
    <path d="M464 226c82 26 156 49 224 92" fill="none" stroke="#18c5a4" stroke-width="5" stroke-linecap="round"/>
    <path d="M464 226l17 1-12 13" fill="none" stroke="#18c5a4" stroke-width="5" stroke-linecap="round" stroke-linejoin="round"/>
    <circle cx="762" cy="338" r="62" fill="#18b89a" stroke="#ffffff" stroke-width="7"/>
    <text class="bubbleText" x="762" y="329">Laravel</text>
    <text class="bubbleText" x="762" y="350">Symfony</text>
    <text class="bubbleSub" x="762" y="370">YII2</text>
  </g>

  <g transform="translate(812 250)">
    <rect width="184" height="84" rx="22" fill="#172433" stroke="#31465c"/>
    <text class="small" x="24" y="31">STATUS</text>
    <text class="label" x="24" y="62">beta seguro</text>
    <circle cx="154" cy="42" r="16" fill="#f78c3d"/>
  </g>
</svg>
